<?xml version="1.0" encoding="iso-8859-1"?>
<!-- Generator: Adobe Illustrator 15.1.0, SVG Export Plug-In . SVG Version: 6.00 Build 0)  -->
<!DOCTYPE svg PUBLIC "-//W3C//DTD SVG 1.1//EN" "http://www.w3.org/Graphics/SVG/1.1/DTD/svg11.dtd">
<svg version="1.1" id="Layer_1" xmlns="http://www.w3.org/2000/svg" xmlns:xlink="http://www.w3.org/1999/xlink" x="0px" y="0px"
	 width="512px" height="512px" viewBox="0 0 512 512" style="enable-background:new 0 0 512 512;" xml:space="preserve">
<g id="PL_x5F_iCloud_1_">
	<g>
		<defs>
			<rect id="SVGID_1_" y="128" width="512" height="320"/>
		</defs>
		<clipPath id="SVGID_2_">
			<use xlink:href="#SVGID_1_"  style="overflow:visible;"/>
		</clipPath>
		<path style="clip-path:url(#SVGID_2_);fill:#929292;" d="M431.357,266.878c0.058-1.449,0.187-2.878,0.187-4.333
			c0-74.304-60.587-134.545-135.315-134.545c-54.09,0-100.571,31.647-122.229,77.266c-11.06-7.422-24.343-11.812-38.686-11.812
			c-36.586,0-66.518,28.14-69.214,63.836C27.625,270.685,0,306.991,0,349.819C0,404.045,44.2,448,98.743,448h321.828
			C471.057,448,512,407.29,512,357.091C512,310.514,476.757,272.184,431.357,266.878z M420.571,433.456H98.743
			c-48.068,0-87.04-35.854-87.04-83.637c0-40.626,28.196-74.632,66.171-83.937c-0.147-1.108-0.343-2.195-0.343-3.338
			c0-31.718,25.872-57.457,57.782-57.457c17.386,0,32.782,7.791,43.375,19.865c16.003-49.46,62.5-85.32,117.539-85.32
			c68.257,0,123.614,55.029,123.614,122.912c0,5.213-0.436,10.32-1.071,15.354c0.6-0.027,1.2-0.091,1.8-0.091
			c44.028,0,79.729,35.497,79.729,79.268C500.3,400.854,464.6,433.456,420.571,433.456z"/>
	</g>
</g>
</svg>
